<svg width="32" height="32" viewBox="0 0 32 32" fill="none" xmlns="http://www.w3.org/2000/svg">
<g clip-path="url(#clip0_4881_4948)">
<rect width="32" height="32" rx="16" fill="#5946D2"/>
<path d="M12.5186 18.0127V11.0469H14.2275V18.0127C14.2275 18.6735 14.0863 19.2363 13.8037 19.7012C13.5212 20.166 13.1361 20.5215 12.6484 20.7676C12.1608 21.0137 11.6071 21.1367 10.9873 21.1367C10.3538 21.1367 9.79102 21.0296 9.29883 20.8154C8.8112 20.6012 8.42839 20.2731 8.15039 19.8311C7.8724 19.389 7.7334 18.8285 7.7334 18.1494H9.45605C9.45605 18.5413 9.51758 18.8581 9.64062 19.0996C9.76823 19.3366 9.94596 19.5098 10.1738 19.6191C10.4062 19.724 10.6774 19.7764 10.9873 19.7764C11.2835 19.7764 11.5456 19.7103 11.7734 19.5781C12.0059 19.4414 12.1882 19.2432 12.3203 18.9834C12.4525 18.7191 12.5186 18.3955 12.5186 18.0127ZM19.3447 21H17.2188L17.2324 19.6396H19.3447C19.96 19.6396 20.4749 19.5052 20.8896 19.2363C21.3089 18.9674 21.6234 18.5824 21.833 18.0811C22.0472 17.5798 22.1543 16.9827 22.1543 16.29V15.75C22.1543 15.2122 22.0928 14.736 21.9697 14.3213C21.8512 13.9066 21.6735 13.5579 21.4365 13.2754C21.2041 12.9928 20.917 12.7786 20.5752 12.6328C20.238 12.487 19.8483 12.4141 19.4062 12.4141H17.1777V11.0469H19.4062C20.0671 11.0469 20.6709 11.1585 21.2178 11.3818C21.7646 11.6006 22.2363 11.9173 22.6328 12.332C23.0339 12.7467 23.3415 13.2435 23.5557 13.8223C23.7699 14.401 23.877 15.0482 23.877 15.7637V16.29C23.877 17.0055 23.7699 17.6527 23.5557 18.2314C23.3415 18.8102 23.0339 19.307 22.6328 19.7217C22.2318 20.1318 21.7533 20.4486 21.1973 20.6719C20.6458 20.8906 20.0283 21 19.3447 21ZM18.1689 11.0469V21H16.4531V11.0469H18.1689Z" fill="white"/>
</g>
<defs>
<clipPath id="clip0_4881_4948">
<rect width="32" height="32" rx="16" fill="white"/>
</clipPath>
</defs>
</svg>
